<svg xmlns="http://www.w3.org/2000/svg" width="618.589" height="618.588" viewBox="0 0 618.589 618.588"><defs><style>.a{fill:#202020;}</style></defs><g transform="translate(0 -0.001)"><g transform="translate(471.191 451.956)"><path class="a" d="M410.624,377.62a12.076,12.076,0,1,0,3.54,8.542A12.173,12.173,0,0,0,410.624,377.62Z" transform="translate(-390 -374.08)"/></g><g transform="translate(0 0.001)"><path class="a" d="M570.262,0H48.327A48.382,48.382,0,0,0,0,48.328V427.8a48.382,48.382,0,0,0,48.327,48.327H238.012v60.647a70.167,70.167,0,0,0-63.228,69.735,12.082,12.082,0,0,0,12.082,12.082H431.724a12.082,12.082,0,0,0,12.082-12.082,70.154,70.154,0,0,0-65.644-69.92V476.125h56.382a12.082,12.082,0,0,0,0-24.164H48.327A24.191,24.191,0,0,1,24.164,427.8V48.328A24.191,24.191,0,0,1,48.327,24.165H570.262a24.191,24.191,0,0,1,24.164,24.164V427.8a24.191,24.191,0,0,1-24.164,24.164H525.157a12.082,12.082,0,0,0,0,24.164h45.105A48.382,48.382,0,0,0,618.589,427.8V48.328A48.381,48.381,0,0,0,570.262,0ZM262.175,476.125H354v60.309H262.175ZM373.73,560.6a46,46,0,0,1,44.3,33.829H200.559a45.992,45.992,0,0,1,44.3-33.829Z" transform="translate(0 -0.001)"/></g><g transform="translate(296.005 413.296)"><path class="a" d="M265.624,345.621a12.076,12.076,0,1,0,3.54,8.542A12.173,12.173,0,0,0,265.624,345.621Z" transform="translate(-245 -342.081)"/></g><g transform="translate(147.465 141.657)"><path class="a" d="M151.222,197.068l59.2-59.195a12.082,12.082,0,1,0-17.086-17.086l-67.738,67.738a12.084,12.084,0,0,0,0,17.087l67.738,67.738a12.082,12.082,0,0,0,17.086-17.087Z" transform="translate(-122.055 -117.248)"/></g><g transform="translate(379.221 141.657)"><path class="a" d="M402.241,188.525,334.5,120.787a12.083,12.083,0,1,0-17.087,17.087l59.2,59.195-59.2,59.195A12.082,12.082,0,0,0,334.5,273.35l67.738-67.738A12.084,12.084,0,0,0,402.241,188.525Z" transform="translate(-313.877 -117.248)"/></g><g transform="translate(279.124 146.414)"><path class="a" d="M282.411,121.6a12.081,12.081,0,0,0-14.8,8.543L231.442,265.136a12.082,12.082,0,1,0,23.341,6.255L290.954,136.4A12.081,12.081,0,0,0,282.411,121.6Z" transform="translate(-231.028 -121.186)"/></g><g transform="translate(48.327 48.429)"><path class="a" d="M549.853,40.084h-192.1a12.082,12.082,0,1,0,0,24.164H537.771V366.293H64.164V64.248H249.62a12.082,12.082,0,1,0,0-24.164H52.082A12.082,12.082,0,0,0,40,52.166V378.375a12.082,12.082,0,0,0,12.082,12.082H549.853a12.082,12.082,0,0,0,12.082-12.082V52.166A12.082,12.082,0,0,0,549.853,40.084Z" transform="translate(-40 -40.084)"/></g><g transform="translate(299.629 48.425)"><path class="a" d="M268.624,43.621a12.09,12.09,0,1,0,3.54,8.542A12.173,12.173,0,0,0,268.624,43.621Z" transform="translate(-248 -40.081)"/></g></g></svg>