<svg xmlns="http://www.w3.org/2000/svg" width="264.343" height="247.068" viewBox="0 0 264.343 247.068"><defs><style>.a{fill:#c03a2b;}.b{fill:#bdc3c7;}.c{fill:#e64c3c;}.d{fill:#a56a43;}.e{fill:#f29c1f;}.f{fill:#e57e25;}.g{fill:#ecf0f1;}.h{fill:#805333;}</style></defs><g transform="translate(-0.001 1.214)"><g transform="translate(0.001 -1.214)"><path class="a" d="M32.536,96.942A68.424,68.424,0,0,1,16.357,84.957,55.6,55.6,0,0,1,1.181,58.8,42.092,42.092,0,0,1,13.213,18.283,29.678,29.678,0,0,1,38.825,8.894C50.72,10.49,61.019,19.331,68.22,27.716L54.776,47.222a43.112,43.112,0,0,0-13.581-13.49,11.279,11.279,0,0,0-15.86,5.332C17.953,53.01,28.48,67.411,40.147,74.976Z" transform="translate(-0.001 27.217)"/><path class="b" d="M153.163,110.141c-10.938,8.34-26.615,13.353-46.622,12.3-14.538-.775-22.878-4.056-27.663-9.024-13.125-13.535.456-39.239-13.49-57.924a51.544,51.544,0,0,0-45.3-19.46c-3.965-9.707-4.876-17.409-2.142-21.921,0-.046,0-.046.046-.091v-.046a9.2,9.2,0,0,1,1.185-1.458C30.752.947,74.731,26.2,117.479,68.9a360.615,360.615,0,0,1,35.684,41.244Z" transform="translate(58.248 30.971)"/><path class="c" d="M208.263,164.992c-18,15.495-107.645,86.088-174.045,19.688C4.367,154.875,2.225,120.33,10.292,89.75A156.012,156.012,0,0,1,17.9,67.784,210.545,210.545,0,0,1,32.531,40.029c4.74-7.656,9.479-14.31,13.444-19.505,3.281-4.284,6.016-7.611,7.975-9.844-2.734,4.512-1.823,12.214,2.142,21.921,7.93,19.551,28.119,47.4,55.463,74.741,1,1,2.005,1.96,3.008,2.962C154.577,149.5,195,173.013,208.263,164.992Z" transform="translate(22.243 34.409)"/><path class="b" d="M153.163,110.141A360.614,360.614,0,0,0,117.479,68.9C74.731,26.2,30.752.947,19.177,12.523a9.2,9.2,0,0,0-1.185,1.458v.046c-.046.046-.046.046-.046.091-2.734,4.512-1.823,12.214,2.142,21.921,7.93,19.551,28.119,47.4,55.463,74.741,1,1,2.005,1.96,3.008,2.962,40.014,39.193,80.437,62.709,93.7,54.688Z" transform="translate(58.248 30.971)"/><ellipse class="d" cx="13.672" cy="22.787" rx="13.672" ry="22.787" transform="translate(166.02 19.332) rotate(-45)"/><path class="e" d="M57.446,81.992c-12.715,12.761-30.215,16.361-41.426,9.3,8.021-8.431,1.914-14.811,10.345-23.2,8.568-8.613,14.994-2.188,23.607-10.755,8.386-8.431,2.279-14.766,10.345-23.2a21.328,21.328,0,0,1,3.555,2.871c10.619,10.664,7.793,30.808-6.426,44.981Z" transform="translate(56.984 117.864)"/><path class="f" d="M68.121,36.923c-8.067,8.431-1.96,14.766-10.345,23.2-8.613,8.568-15.039,2.142-23.607,10.755-8.431,8.386-2.324,14.766-10.345,23.2A21.328,21.328,0,0,1,20.269,91.2C9.6,80.537,12.475,60.394,26.694,46.22,39.409,33.46,56.91,29.86,68.121,36.923Z" transform="translate(49.181 115.081)"/><path class="d" d="M75.98,93.048l-.319.319c-1-1-2.005-1.96-3.008-2.962C45.309,63.06,25.12,35.215,17.19,15.664a51.544,51.544,0,0,1,45.3,19.46C76.436,53.809,62.855,79.512,75.98,93.048Z" transform="translate(61.146 51.346)"/><path class="g" d="M153.163,110.141A360.614,360.614,0,0,0,117.479,68.9C74.731,26.2,30.752.947,19.177,12.523a9.2,9.2,0,0,0-1.185,1.458v.046c-.046.046-.046.046-.046.091-2.734,4.512-1.823,12.214,2.142,21.921,7.93,19.551,28.119,47.4,55.463,74.741,1,1,2.005,1.96,3.008,2.962,40.014,39.193,80.437,62.709,93.7,54.688,4.69-3.4-2.142-14.994-2.142-14.994Zm-68.224-2.917-2.962-2.871c-3.236-3.236-6.335-6.471-9.434-9.753C53.174,73.774,37.588,52.4,30.069,36.221c-.547-1.23-1.094-2.415-1.549-3.6A28.069,28.069,0,0,1,25.557,19.45l.638-.547a7.347,7.347,0,0,1,1.185-.091c13.125,0,46.9,19.824,83.673,56.557a356.732,356.732,0,0,1,33.907,39.011l.273.775,14.675,44.8c-12.578-3.418-34.317-16.406-58.972-37.963-5.241-4.512-10.573-9.479-16-14.766Z" transform="translate(58.248 30.971)"/><path class="d" d="M139.931,76.186a117.58,117.58,0,0,1-15.358,54.324,27.6,27.6,0,0,1-22.5,13.394h-.16a26.674,26.674,0,0,1-8.787-.952,84.052,84.052,0,0,1-15.951-7.064c-3.327-1.869-6.882-4.01-10.664-6.471a281.7,281.7,0,0,1-31.582-24.2c1.777.182,3.646.365,5.606.456,20.007,1.048,35.684-3.965,46.622-12.3A43.673,43.673,0,0,0,98.642,34.851C79.638,3,143.668,2.539,139.931,76.186Z" transform="translate(124.254 47.745)"/><path class="h" d="M82.466,42.479A64.856,64.856,0,0,1,52.524,62.713C49.2,60.845,45.643,58.7,41.86,56.242a58.548,58.548,0,0,0,33.588-19.6,4.563,4.563,0,1,1,7.018,5.833Z" transform="translate(148.906 120.919)"/></g></g></svg>