<svg xmlns="http://www.w3.org/2000/svg" width="55.901" height="52.248" viewBox="0 0 55.901 52.248"><defs><style>.a{fill:#c03a2b;}.b{fill:#bdc3c7;}.c{fill:#e64c3c;}.d{fill:#a56a43;}.e{fill:#f29c1f;}.f{fill:#e57e25;}.g{fill:#ecf0f1;}.h{fill:#805333;}</style></defs><g transform="translate(0 0)"><g transform="translate(0)"><path class="a" d="M6.881,27.328A14.47,14.47,0,0,1,3.46,24.793,11.758,11.758,0,0,1,.251,19.261a8.9,8.9,0,0,1,2.544-8.568A6.276,6.276,0,0,1,8.211,8.708c2.515.337,4.693,2.207,6.216,3.98l-2.843,4.125a9.117,9.117,0,0,0-2.872-2.853,2.385,2.385,0,0,0-3.354,1.128c-1.561,2.949.665,5.994,3.132,7.594Z" transform="translate(-0.001 -1.072)"/><path class="b" d="M45.3,30.951a14.706,14.706,0,0,1-9.859,2.6c-3.074-.164-4.838-.858-5.85-1.908-2.776-2.862.1-8.3-2.853-12.249a10.9,10.9,0,0,0-9.58-4.115c-.838-2.053-1.031-3.681-.453-4.636,0-.01,0-.01.01-.019v-.01a1.946,1.946,0,0,1,.251-.308C19.416,7.86,28.716,13.2,37.756,22.229A76.259,76.259,0,0,1,45.3,30.951Z" transform="translate(-0.595 -1.11)"/><path class="c" d="M48.973,43.312c-3.807,3.277-22.764,18.205-36.805,4.163C5.855,41.173,5.4,33.868,7.108,27.4a32.992,32.992,0,0,1,1.609-4.645,44.524,44.524,0,0,1,3.094-5.869c1-1.619,2-3.026,2.843-4.125.694-.906,1.272-1.609,1.687-2.082-.578.954-.385,2.583.453,4.636C18.47,19.45,22.74,25.339,28.522,31.121c.212.212.424.414.636.626C37.62,40.036,46.168,45.009,48.973,43.312Z" transform="translate(-0.228 -1.145)"/><path class="b" d="M45.3,30.951a76.259,76.259,0,0,0-7.546-8.722C28.716,13.2,19.416,7.86,16.968,10.308a1.946,1.946,0,0,0-.251.308v.01c-.01.01-.01.01-.01.019-.578.954-.385,2.583.453,4.636,1.677,4.134,5.946,10.023,11.729,15.805.212.212.424.414.636.626C37.987,40,46.535,44.973,49.34,43.277Z" transform="translate(-0.595 -1.11)"/><ellipse class="d" cx="2.891" cy="4.819" rx="2.891" ry="4.819" transform="translate(35.108 4.088) rotate(-45)"/><path class="e" d="M24.78,44.259c-2.689,2.7-6.39,3.46-8.76,1.966,1.7-1.783.4-3.132,2.188-4.905,1.812-1.821,3.171-.463,4.992-2.274,1.773-1.783.482-3.123,2.188-4.905a4.51,4.51,0,0,1,.752.607C28.385,37,27.787,41.262,24.78,44.259Z" transform="translate(-0.582 -1.996)"/><path class="f" d="M25.308,34.112c-1.706,1.783-.414,3.123-2.188,4.905-1.821,1.812-3.18.453-4.992,2.274-1.783,1.773-.492,3.123-2.188,4.905a4.51,4.51,0,0,1-.752-.607c-2.255-2.255-1.648-6.515,1.359-9.512C19.236,33.379,22.937,32.618,25.308,34.112Z" transform="translate(-0.502 -1.967)"/><path class="d" d="M29.622,31.853l-.067.067c-.212-.212-.424-.414-.636-.626C23.136,25.511,18.867,19.623,17.19,15.488A10.9,10.9,0,0,1,26.77,19.6C29.719,23.555,26.847,28.99,29.622,31.853Z" transform="translate(-0.624 -1.318)"/><path class="g" d="M45.3,30.951a76.259,76.259,0,0,0-7.546-8.722C28.716,13.2,19.416,7.86,16.968,10.308a1.946,1.946,0,0,0-.251.308v.01c-.01.01-.01.01-.01.019-.578.954-.385,2.583.453,4.636,1.677,4.134,5.946,10.023,11.729,15.805.212.212.424.414.636.626C37.987,40,46.535,44.973,49.34,43.277c.992-.718-.453-3.171-.453-3.171Zm-14.427-.617-.626-.607c-.684-.684-1.34-1.369-1.995-2.062-4.1-4.4-7.392-8.924-8.982-12.346-.116-.26-.231-.511-.328-.761a5.936,5.936,0,0,1-.626-2.785l.135-.116a1.554,1.554,0,0,1,.251-.019c2.776,0,9.917,4.192,17.694,11.96a75.437,75.437,0,0,1,7.17,8.25l.058.164,3.1,9.474c-2.66-.723-7.257-3.469-12.471-8.028-1.108-.954-2.236-2-3.383-3.123Z" transform="translate(-0.595 -1.11)"/><path class="d" d="M57.135,27.489a24.864,24.864,0,0,1-3.248,11.488,5.835,5.835,0,0,1-4.758,2.832H49.1a5.641,5.641,0,0,1-1.858-.2,17.775,17.775,0,0,1-3.373-1.494c-.7-.4-1.455-.848-2.255-1.369a59.571,59.571,0,0,1-6.679-5.117c.376.039.771.077,1.185.1a14.706,14.706,0,0,0,9.859-2.6A9.236,9.236,0,0,0,48.4,18.748C44.384,12.011,57.925,11.915,57.135,27.489Z" transform="translate(-1.267 -1.281)"/><path class="h" d="M50.447,36.58a13.715,13.715,0,0,1-6.332,4.279c-.7-.4-1.455-.848-2.255-1.369a12.381,12.381,0,0,0,7.1-4.144.965.965,0,1,1,1.484,1.234Z" transform="translate(-1.519 -2.027)"/></g></g></svg>