<svg xmlns="http://www.w3.org/2000/svg" width="806.783" height="767.03" viewBox="0 0 806.783 767.03"><defs><style>.a{fill:#c03a2b;}.b{fill:#bdc3c7;}.c{fill:#e64c3c;}.d{fill:#a56a43;}.e{fill:#f29c1f;}.f{fill:#e57e25;}.g{fill:#ecf0f1;}.h{fill:#805333;}</style></defs><g transform="matrix(-0.899, -0.438, 0.438, -0.899, 562.606, 799.978)"><g transform="translate(0 0)"><path class="a" d="M85.809,0a180.465,180.465,0,0,0-42.67,31.612A146.641,146.641,0,0,0,3.113,100.6,111.014,111.014,0,0,0,34.846,207.46,78.273,78.273,0,0,0,102.4,232.221c31.371-4.207,58.536-27.525,77.527-49.641l-35.458-51.444a113.706,113.706,0,0,1-35.819,35.578A29.749,29.749,0,0,1,66.818,152.65c-19.472-36.78,8.294-74.763,39.064-94.715Z" transform="translate(0 324.166)"/><path class="b" d="M360.768,32.817C331.921,10.82,290.573-2.4,237.806.363c-38.343,2.043-60.339,10.7-72.96,23.8-34.617,35.7,1.2,103.49-35.578,152.771A135.943,135.943,0,0,1,9.792,228.257c-10.457,25.6-12.861,45.915-5.649,57.815,0,.12,0,.12.12.24v.12a24.265,24.265,0,0,0,3.125,3.846c30.53,30.53,146.52-36.059,259.265-148.684A951.1,951.1,0,0,0,360.768,32.817Z" transform="translate(196.815 246.636)"/><path class="c" d="M532.785,125.72C485.307,84.853,248.88-101.332,73.752,73.8-4.977,152.4-10.626,243.514,10.649,324.166A411.469,411.469,0,0,0,30.722,382.1,555.3,555.3,0,0,0,69.3,455.3c12.5,20.193,25,37.742,35.458,51.444,8.654,11.3,15.866,20.073,21.035,25.963-7.212-11.9-4.808-32.213,5.649-57.815,20.914-51.565,74.162-125.005,146.28-197.123,2.644-2.644,5.289-5.168,7.933-7.813C391.193,166.587,497.808,104.566,532.785,125.72Z" transform="translate(75.16 0)"/><path class="b" d="M360.768,157.858a951.1,951.1,0,0,1-94.114,108.778C153.909,379.261,37.918,445.85,7.388,415.32a24.269,24.269,0,0,1-3.125-3.846v-.12c-.12-.12-.12-.12-.12-.24C-3.069,399.214-.665,378.9,9.792,353.3c20.914-51.565,74.162-125.005,146.28-197.123,2.644-2.644,5.289-5.168,7.933-7.813C269.538,44.993,376.153-17.029,411.131,4.126Z" transform="translate(196.815 121.595)"/><ellipse class="d" cx="36.054" cy="60.09" rx="36.054" ry="60.09" transform="translate(522.846 515.66) rotate(45)"/><path class="e" d="M109.259,33.925C75.724.27,29.568-9.226,0,9.4c21.155,22.236,5.048,39.064,27.285,61.18C49.882,93.3,66.83,76.355,89.547,98.952c22.116,22.236,6.01,38.944,27.285,61.18a56.253,56.253,0,0,0,9.375-7.572c28.006-28.126,20.554-81.253-16.948-118.635Z" transform="translate(192.544 90.593)"/><path class="f" d="M143.2,150.727c-21.275-22.236-5.168-38.944-27.285-61.18C93.2,66.95,76.248,83.9,53.651,61.18,31.414,39.064,47.521,22.236,26.366,0a56.251,56.251,0,0,0-9.375,7.572C-11.135,35.7-3.563,88.826,33.939,126.207,67.474,159.862,113.629,169.358,143.2,150.727Z" transform="translate(166.178 99.998)"/><path class="d" d="M155.054.841,154.213,0c-2.644,2.644-5.289,5.168-7.933,7.813C74.162,79.931,20.914,153.372,0,204.936a135.943,135.943,0,0,0,119.476-51.324C156.256,104.331,120.438,36.54,155.054.841Z" transform="translate(206.607 269.957)"/><path class="g" d="M360.768,157.858a951.1,951.1,0,0,1-94.114,108.778C153.909,379.261,37.918,445.85,7.388,415.32a24.269,24.269,0,0,1-3.125-3.846v-.12c-.12-.12-.12-.12-.12-.24C-3.069,399.214-.665,378.9,9.792,353.3c20.914-51.565,74.162-125.005,146.28-197.123,2.644-2.644,5.289-5.168,7.933-7.813C269.538,44.993,376.153-17.029,411.131,4.126c12.368,8.955-5.649,39.545-5.649,39.545Zm-179.935,7.693-7.813,7.572c-8.534,8.534-16.707,17.068-24.881,25.722-51.084,54.93-92.191,111.3-112.024,153.973-1.442,3.245-2.885,6.37-4.087,9.5a74.029,74.029,0,0,0-7.813,34.737l1.683,1.442a19.379,19.379,0,0,0,3.125.24c34.617,0,123.683-52.286,220.682-149.165A940.862,940.862,0,0,0,339.133,146.68l.721-2.043,38.7-118.154C345.383,35.5,288.049,69.753,223.022,126.607c-13.823,11.9-27.886,25-42.189,38.944Z" transform="translate(196.815 121.595)"/><path class="d" d="M276.934,178.721A310.109,310.109,0,0,0,236.428,35.446,72.779,72.779,0,0,0,177.086.12h-.421a70.351,70.351,0,0,0-23.174,2.512,221.683,221.683,0,0,0-42.069,18.631C102.648,26.191,93.273,31.84,83.3,38.331A742.955,742.955,0,0,0,0,102.156c4.688-.481,9.616-.962,14.784-1.2,52.767-2.765,94.114,10.457,122.962,32.453a115.185,115.185,0,0,1,30.29,154.333C117.913,371.758,286.79,372.96,276.934,178.721Z" transform="translate(419.837 146.046)"/><path class="h" d="M107.1,53.368A171.053,171.053,0,0,0,28.126,0C19.352,4.928,9.976,10.577,0,17.068A154.417,154.417,0,0,1,88.585,68.753,12.035,12.035,0,1,0,107.1,53.368Z" transform="translate(503.134 167.309)"/></g></g></svg>